<svg width="21" height="20" viewBox="0 0 21 20" fill="none" xmlns="http://www.w3.org/2000/svg">
<path d="M19.1013 3.53445e-08H1.30838C0.699097 0.000305211 0.20517 0.494537 0.205322 1.10397V18.8969C0.205627 19.5062 0.69986 20.0002 1.3093 20H19.1013C19.7109 20.0002 20.2052 19.5061 20.2053 18.8965C20.2053 18.8963 20.2053 18.8962 20.2053 18.896V1.10306C20.205 0.493774 19.7108 -0.000152553 19.1013 3.53445e-08Z" fill="#222222"/>
<path d="M14.0137 20V12.2657H16.6211L17.0117 9.23831H14.0137V7.31021C14.0137 6.43573 14.2564 5.83987 15.5104 5.83987H17.0996V3.13953C16.8231 3.10275 15.8745 3.02051 14.7707 3.02051C12.466 3.02051 10.8887 4.42676 10.8887 7.01038V9.23831H8.29102V12.2657H10.8887V20H14.0137Z" fill="white"/>
</svg>
