<svg width="21" height="20" viewBox="0 0 21 20" fill="none" xmlns="http://www.w3.org/2000/svg">
<path d="M1.40738 1.38854C-0.159774 3.01603 0.160968 4.74487 0.160968 9.99704C0.160968 14.3586 -0.600172 18.731 3.38335 19.7603C4.62727 20.0802 15.6488 20.0802 16.8911 19.7587C18.5497 19.3308 19.8991 17.9858 20.0836 15.6405C20.1093 15.3132 20.1093 4.68672 20.0827 4.35275C19.8866 1.8546 18.3486 0.41487 16.3219 0.123268C15.8574 0.0559748 15.7643 0.0360361 13.3812 0.0318823C4.92807 0.0360361 3.07507 -0.340305 1.40738 1.38854Z" fill="#222222"/>
<path d="M10.1304 2.63992C7.1133 2.63992 4.24822 2.37158 3.15387 5.1796C2.70184 6.33936 2.76749 7.84556 2.76749 10.0023C2.76749 11.8948 2.70683 13.6735 3.15387 14.8241C4.24573 17.6338 7.13407 17.3646 10.1288 17.3646C13.018 17.3646 15.9969 17.6653 17.1045 14.8241C17.5574 13.6527 17.4909 12.1689 17.4909 10.0023C17.4909 7.12611 17.6496 5.26932 16.2545 3.87528C14.8419 2.46296 12.9315 2.63992 10.1271 2.63992H10.1304ZM9.47067 3.96667C15.7642 3.9567 16.5652 3.25719 16.1232 12.9748C15.9661 16.4117 13.3487 16.0345 10.1313 16.0345C4.26484 16.0345 4.09616 15.8667 4.09616 9.99893C4.09616 4.06304 4.56148 3.96999 9.47067 3.96501V3.96667ZM14.0608 5.18874C13.573 5.18874 13.1775 5.58419 13.1775 6.07185C13.1775 6.55952 13.573 6.95497 14.0608 6.95497C14.5485 6.95497 14.9441 6.55952 14.9441 6.07185C14.9441 5.58419 14.5485 5.18874 14.0608 5.18874ZM10.1304 6.22139C8.04229 6.22139 6.34966 7.91451 6.34966 10.0023C6.34966 12.09 8.04229 13.7823 10.1304 13.7823C12.2186 13.7823 13.9104 12.09 13.9104 10.0023C13.9104 7.91451 12.2186 6.22139 10.1304 6.22139ZM10.1304 7.54814C13.3753 7.54814 13.3794 12.4564 10.1304 12.4564C6.88645 12.4564 6.88146 7.54814 10.1304 7.54814Z" fill="white"/>
</svg>
