<svg width="12" height="15" viewBox="0 0 12 15" fill="none" xmlns="http://www.w3.org/2000/svg">
<path fill-rule="evenodd" clip-rule="evenodd" d="M0.0285581 5.40134C0.315355 2.43347 2.79784 0.108385 5.78608 0.00381776C9.1968 -0.116127 12 2.6057 12 5.98261C12 6.37012 11.963 6.74841 11.8921 7.11747C11.8921 7.11747 11.8797 7.18513 11.852 7.30508C11.7595 7.72027 11.6238 8.11701 11.448 8.49222C10.8436 9.91926 9.45275 12.2966 6.33191 14.8801C6.13763 15.04 5.857 15.04 5.66581 14.8801C2.54497 12.2936 1.15416 9.91618 0.55281 8.4953C0.380115 8.12009 0.241343 7.72027 0.148828 7.30815C0.117989 7.18513 0.108738 7.12055 0.108738 7.12055C0.00388753 6.57003 -0.0300347 5.99491 0.0285581 5.40134ZM6 8C7.10457 8 8 7.10457 8 6C8 4.89543 7.10457 4 6 4C4.89543 4 4 4.89543 4 6C4 7.10457 4.89543 8 6 8Z" fill="#0F74D1"/>
</svg>
