<svg width="15" height="15" viewBox="0 0 15 15" fill="none" xmlns="http://www.w3.org/2000/svg">
<circle cx="7.5" cy="7.5" r="7.5" fill="#0F74D1"/>
<path d="M10.8012 9.16196L10.0523 8.41312C9.91682 8.27767 9.74707 8.18154 9.56119 8.13498C9.37532 8.08843 9.18029 8.0932 8.99692 8.14878C8.81354 8.20437 8.64869 8.30868 8.51994 8.4506C8.3912 8.59251 8.30339 8.76671 8.26588 8.95462C7.03099 8.72371 5.82994 7.52762 5.75518 6.45855C5.96512 6.41993 6.15833 6.31833 6.30912 6.16724C6.50765 5.96868 6.61919 5.6994 6.61919 5.41861C6.61919 5.13783 6.50765 4.86854 6.30912 4.66999L5.56047 3.92115C5.36191 3.72262 5.09262 3.61108 4.81183 3.61108C4.53103 3.61108 4.26174 3.72262 4.06318 3.92115C1.81703 6.16724 8.55506 12.9051 10.8012 10.659C10.9996 10.4604 11.1111 10.1912 11.1111 9.91048C11.1111 9.62977 10.9996 9.36054 10.8012 9.16196Z" fill="white"/>
</svg>
