<svg width="17" height="17" viewBox="0 0 17 17" fill="none" xmlns="http://www.w3.org/2000/svg">
<circle cx="8.5" cy="8.5" r="8.5" fill="white"/>
<path d="M12.2413 10.3835L11.3926 9.53484C11.239 9.38132 11.0466 9.27237 10.836 9.21961C10.6253 9.16685 10.4043 9.17226 10.1965 9.23525C9.98865 9.29825 9.80181 9.41647 9.6559 9.57731C9.50999 9.73815 9.41048 9.93557 9.36796 10.1485C7.96842 9.88684 6.60723 8.53127 6.52251 7.31966C6.76044 7.27589 6.97941 7.16074 7.1503 6.98951C7.37531 6.76448 7.50171 6.45928 7.50171 6.14106C7.50171 5.82284 7.37531 5.51765 7.1503 5.29262L6.30184 4.44393C6.0768 4.21893 5.7716 4.09253 5.45337 4.09253C5.13514 4.09253 4.82994 4.21893 4.6049 4.44393C2.05926 6.98951 9.6957 14.6257 12.2413 12.0802C12.4662 11.8551 12.5925 11.55 12.5925 11.2318C12.5925 10.9137 12.4662 10.6086 12.2413 10.3835Z" fill="#0F74D1"/>
</svg>
