<svg width="15" height="15" viewBox="0 0 15 15" fill="none" xmlns="http://www.w3.org/2000/svg">
<path d="M15 7.5C15 11.6421 11.6421 15 7.5 15C3.35786 15 0 11.6421 0 7.5C0 3.35786 3.35786 0 7.5 0C11.6421 0 15 3.35786 15 7.5Z" fill="#F60505"/>
<path d="M3.69365 5.37184V4.91851C3.69365 4.59274 3.7643 4.29641 3.9056 4.02951C4.04689 3.76262 4.25884 3.54871 4.54144 3.38778C4.82403 3.22686 5.17531 3.1464 5.59528 3.1464C6.02703 3.1464 6.3842 3.22686 6.66679 3.38778C6.94939 3.54871 7.15937 3.76262 7.29675 4.02951C7.43804 4.29641 7.50869 4.59274 7.50869 4.91851V5.37184C7.50869 5.68976 7.43804 5.98217 7.29675 6.24907C7.15937 6.51596 6.94939 6.72987 6.66679 6.89079C6.38812 7.05172 6.03684 7.13218 5.61295 7.13218C5.18513 7.13218 4.82992 7.05172 4.54732 6.89079C4.26473 6.72987 4.05082 6.51596 3.9056 6.24907C3.7643 5.98217 3.69365 5.68976 3.69365 5.37184ZM4.96533 4.91851V5.37184C4.96533 5.48959 4.98888 5.60145 5.03598 5.70742C5.08308 5.8134 5.15373 5.89975 5.24793 5.96647C5.34605 6.02927 5.46576 6.06067 5.60706 6.06067C5.75228 6.06067 5.87003 6.02927 5.9603 5.96647C6.05058 5.89975 6.1173 5.8134 6.16047 5.70742C6.20757 5.60145 6.23112 5.48959 6.23112 5.37184V4.91851C6.23112 4.79291 6.20757 4.67713 6.16047 4.57115C6.1173 4.46518 6.04861 4.38079 5.95441 4.318C5.86022 4.25127 5.74051 4.21791 5.59528 4.21791C5.45791 4.21791 5.34212 4.25127 5.24793 4.318C5.15373 4.38079 5.08308 4.46518 5.03598 4.57115C4.98888 4.67713 4.96533 4.79291 4.96533 4.91851ZM7.76185 10.1936V9.7403C7.76185 9.41846 7.8325 9.12408 7.9738 8.85719C8.11902 8.59029 8.33293 8.37638 8.61552 8.21546C8.90205 8.05454 9.25529 7.97408 9.67526 7.97408C10.107 7.97408 10.4622 8.05454 10.7409 8.21546C11.0235 8.37638 11.2335 8.59029 11.3708 8.85719C11.5121 9.12408 11.5828 9.41846 11.5828 9.7403V10.1936C11.5828 10.5155 11.5121 10.8098 11.3708 11.0767C11.2335 11.3436 11.0254 11.5575 10.7468 11.7185C10.4681 11.8794 10.1168 11.9599 9.69292 11.9599C9.2651 11.9599 8.90793 11.8794 8.62141 11.7185C8.33489 11.5575 8.11902 11.3436 7.9738 11.0767C7.8325 10.8098 7.76185 10.5155 7.76185 10.1936ZM9.03942 9.7403V10.1936C9.03942 10.3153 9.06886 10.4291 9.12773 10.5351C9.1866 10.6411 9.2651 10.7274 9.36323 10.7941C9.46135 10.8569 9.56929 10.8883 9.68703 10.8883C9.86758 10.8883 10.001 10.8569 10.0874 10.7941C10.1777 10.7274 10.2365 10.6411 10.264 10.5351C10.2954 10.4291 10.3111 10.3153 10.3111 10.1936V9.7403C10.3111 9.61863 10.2875 9.5048 10.2404 9.39883C10.1934 9.29286 10.1227 9.20847 10.0285 9.14567C9.93431 9.07895 9.81656 9.04559 9.67526 9.04559C9.53396 9.04559 9.41621 9.07895 9.32201 9.14567C9.22782 9.20847 9.15717 9.29286 9.11007 9.39883C9.06297 9.5048 9.03942 9.61863 9.03942 9.7403ZM10.1698 4.5005L5.98385 11.2004L5.05953 10.7353L9.24548 4.0354L10.1698 4.5005Z" fill="white"/>
</svg>
