<svg width="20" height="20" viewBox="0 0 20 20" fill="none" xmlns="http://www.w3.org/2000/svg">
<path fill-rule="evenodd" clip-rule="evenodd" d="M14.4479 0.063409C14.4336 0.0462267 14.4578 0.0548181 14.41 0.0499633C14.3985 0.0487972 14.3685 0.0505344 14.3552 0.0505344C14.3675 0.0575311 14.3486 0.0591491 14.3959 0.0639563C14.407 0.0650748 14.4349 0.063409 14.4479 0.063409Z" fill="#222222"/>
<path fill-rule="evenodd" clip-rule="evenodd" d="M14.4478 19.9367C14.4349 19.9367 14.4069 19.9351 14.3958 19.9362C14.3436 19.9415 14.3688 19.9419 14.3556 19.9496C14.397 19.9496 14.4208 19.9572 14.4478 19.9367Z" fill="#222222"/>
<path fill-rule="evenodd" clip-rule="evenodd" d="M19.9366 14.435C19.9534 14.421 19.9443 14.4362 19.9486 14.4085C19.9509 14.3946 19.9495 14.3702 19.9495 14.3555C19.9433 14.3662 19.9412 14.3606 19.9375 14.384C19.9354 14.3975 19.9366 14.4206 19.9366 14.435Z" fill="#222222"/>
<path fill-rule="evenodd" clip-rule="evenodd" d="M5.646 0.0505261C5.60578 0.0505261 5.59119 0.0443146 5.56604 0.0634007C5.61247 0.0633769 5.61323 0.0691363 5.646 0.0505261Z" fill="#222222"/>
<path fill-rule="evenodd" clip-rule="evenodd" d="M5.64541 19.9496L5.60519 19.9362C5.60114 19.9356 5.5722 19.9368 5.56604 19.9368C5.58422 19.9585 5.60555 19.9496 5.64541 19.9496Z" fill="#222222"/>
<path fill-rule="evenodd" clip-rule="evenodd" d="M0.0506327 5.63567C0.0548212 5.6276 0.0593893 5.62556 0.0625783 5.60457C0.0642917 5.59333 0.0635306 5.57751 0.0635544 5.56592C0.0417077 5.58408 0.0506327 5.59479 0.0506327 5.63567Z" fill="#222222"/>
<path fill-rule="evenodd" clip-rule="evenodd" d="M0.0635245 14.4347C0.0635007 14.4257 0.0643089 14.4043 0.0625716 14.3963C0.0512913 14.3448 0.0633581 14.3897 0.0506261 14.3665C0.0506261 14.375 0.0497465 14.3995 0.0515789 14.4077C0.0575998 14.4348 0.0521252 14.4196 0.0635245 14.4347Z" fill="#222222"/>
<path fill-rule="evenodd" clip-rule="evenodd" d="M14.978 0.10274C14.9619 0.0856842 15.0051 0.0882755 14.9399 0.0882755C14.9531 0.101421 14.9194 0.100714 14.978 0.10274Z" fill="#222222"/>
<path fill-rule="evenodd" clip-rule="evenodd" d="M0.103011 14.9779C0.100962 14.9197 0.101597 14.9529 0.0885222 14.9399C0.0885222 15.0051 0.0859082 14.9617 0.103011 14.9779Z" fill="#222222"/>
<path fill-rule="evenodd" clip-rule="evenodd" d="M19.8969 14.9778C19.9141 14.9615 19.9114 15.005 19.9114 14.9399C19.8982 14.9529 19.8991 14.9197 19.8969 14.9778Z" fill="#222222"/>
<path fill-rule="evenodd" clip-rule="evenodd" d="M0.0885282 5.05952C0.101721 5.04651 0.100897 5.07989 0.103017 5.02173C0.0858671 5.03798 0.0885282 4.99452 0.0885282 5.05952Z" fill="#222222"/>
<path fill-rule="evenodd" clip-rule="evenodd" d="M14.978 19.897C14.9197 19.8991 14.9536 19.898 14.9406 19.9114C15.0053 19.9114 14.9617 19.9142 14.978 19.897Z" fill="#222222"/>
<path fill-rule="evenodd" clip-rule="evenodd" d="M19.9115 5.05914C19.9115 4.99443 19.9142 5.03805 19.897 5.02173C19.8992 5.07968 19.8981 5.04623 19.9115 5.05914Z" fill="#222222"/>
<path fill-rule="evenodd" clip-rule="evenodd" d="M19.9495 5.64531L19.9366 5.56592C19.9366 5.57182 19.9355 5.60138 19.936 5.60507L19.9495 5.64531Z" fill="#222222"/>
<path fill-rule="evenodd" clip-rule="evenodd" d="M16.825 19.5946C16.8019 19.5946 16.8061 19.5879 16.8061 19.6079C16.8292 19.6079 16.825 19.6146 16.825 19.5946Z" fill="#222222"/>
<path fill-rule="evenodd" clip-rule="evenodd" d="M16.825 0.405448C16.825 0.385553 16.8292 0.392169 16.8063 0.392169C16.8063 0.412064 16.8021 0.405448 16.825 0.405448Z" fill="#222222"/>
<path fill-rule="evenodd" clip-rule="evenodd" d="M5.06091 0.0885171C5.01685 0.0885171 5.04494 0.0843654 5.03479 0.103424L5.06091 0.0885171Z" fill="#222222"/>
<path fill-rule="evenodd" clip-rule="evenodd" d="M5.06028 19.9119L5.03479 19.897C5.04494 19.916 5.0169 19.9119 5.06028 19.9119Z" fill="#222222"/>
<path fill-rule="evenodd" clip-rule="evenodd" d="M2.3158 19.2665L2.30237 19.2532L2.3158 19.2665Z" fill="#222222"/>
<path fill-rule="evenodd" clip-rule="evenodd" d="M12.8532 19.9873C12.8236 19.9873 12.7591 19.9765 12.7443 20.0001H12.7451H12.8184C12.822 19.9998 12.8252 19.9995 12.8267 19.9992C12.8522 19.9942 12.8398 19.9958 12.8532 19.9873Z" fill="#222222"/>
<path fill-rule="evenodd" clip-rule="evenodd" d="M7.24466 0H7.24383H7.16934C7.16574 0.000259135 7.16251 0.000565639 7.16107 0.000848332C7.13566 0.00588969 7.14795 0.00426432 7.13464 0.0127451C7.17566 0.0127451 7.22105 0.0211078 7.24466 0Z" fill="#222222"/>
<path fill-rule="evenodd" clip-rule="evenodd" d="M0 7.23611C0.0105068 7.21983 0.00897238 7.24028 0.0132834 7.19887C0.0147911 7.18435 0.0127676 7.1514 0.0127911 7.13477C0.00249639 7.1509 0.00360434 7.13316 0 7.16716V7.23611Z" fill="#222222"/>
<path fill-rule="evenodd" clip-rule="evenodd" d="M0.0127911 12.8655C0.0127676 12.8509 0.0144842 12.8267 0.0137067 12.8137C0.0134241 12.809 0.0126954 12.7943 0.0118709 12.7901C0.00673531 12.7643 0.00888127 12.7779 0 12.7642V12.7648V12.8309C0.000282693 12.8346 0.000586919 12.8378 0.000869612 12.8392C0.00591097 12.8646 0.00428678 12.8522 0.0127911 12.8655Z" fill="#222222"/>
<path fill-rule="evenodd" clip-rule="evenodd" d="M7.25625 19.9999C7.233 19.9791 7.18529 19.9871 7.14734 19.9871L7.1941 19.9999H7.25542H7.25625Z" fill="#222222"/>
<path fill-rule="evenodd" clip-rule="evenodd" d="M19.9871 12.8537C19.9978 12.837 19.9964 12.8553 20 12.8209V12.7662V12.7656C19.9778 12.7816 19.9872 12.8151 19.9871 12.8537Z" fill="#222222"/>
<path fill-rule="evenodd" clip-rule="evenodd" d="M20 7.23559V7.23504V7.18111C19.9931 7.12614 20.0004 7.16831 19.9871 7.14746C19.9871 7.15867 19.9855 7.19051 19.9866 7.19932C19.9921 7.24201 19.9832 7.21533 20 7.23559Z" fill="#222222"/>
<path fill-rule="evenodd" clip-rule="evenodd" d="M12.8658 0.0127451L12.7438 0C12.76 0.024665 12.834 0.0127451 12.8658 0.0127451Z" fill="#222222"/>
<path fill-rule="evenodd" clip-rule="evenodd" d="M3.54437 0.303711L3.52942 0.315942L3.54437 0.303711Z" fill="#222222"/>
<path fill-rule="evenodd" clip-rule="evenodd" d="M16.4713 0.315942L16.4563 0.303711L16.4713 0.315942Z" fill="#222222"/>
<path fill-rule="evenodd" clip-rule="evenodd" d="M0.315795 3.52954L0.303589 3.54452L0.315795 3.52954Z" fill="#222222"/>
<path fill-rule="evenodd" clip-rule="evenodd" d="M19.6969 3.54445L19.6847 3.52954L19.6969 3.54445Z" fill="#222222"/>
<path fill-rule="evenodd" clip-rule="evenodd" d="M0.315795 16.4712L0.303589 16.4563L0.315795 16.4712Z" fill="#222222"/>
<path fill-rule="evenodd" clip-rule="evenodd" d="M19.6969 16.4563L19.6847 16.4714L19.6969 16.4563Z" fill="#222222"/>
<path fill-rule="evenodd" clip-rule="evenodd" d="M3.54475 19.697L3.52942 19.6848L3.54475 19.697Z" fill="#222222"/>
<path fill-rule="evenodd" clip-rule="evenodd" d="M16.4713 19.6848L16.4563 19.697L16.4713 19.6848Z" fill="#222222"/>
<path fill-rule="evenodd" clip-rule="evenodd" d="M3.85674 6.25542C4.00385 6.24051 4.72786 6.24993 4.93357 6.24993C5.29089 6.24993 5.64881 6.19047 5.85871 6.41198C6.01178 6.57353 6.10101 6.91926 6.19434 7.16369C6.29594 7.42979 6.39705 7.67202 6.50596 7.92784C6.87848 8.80278 7.63128 10.1386 8.18764 10.5725C8.27466 10.6404 8.41613 10.7442 8.57342 10.699C8.71203 10.6592 8.73544 10.4822 8.74615 10.3274C8.76957 9.98991 8.75119 9.59126 8.75119 9.24725C8.75119 8.8846 8.75105 8.52198 8.75119 8.15933C8.75154 7.01669 8.16376 6.95577 8.17241 6.5782C8.17599 6.42145 8.28901 6.31242 8.41011 6.27124C8.53718 6.22797 9.81591 6.24993 10.0063 6.24993C10.2275 6.24993 10.887 6.2196 11.0429 6.28797C11.308 6.40424 11.2514 6.85483 11.2514 7.17262V9.34845C11.2514 9.62782 11.2005 10.1572 11.5642 10.0837C11.7511 10.0459 11.9218 9.8681 12.0506 9.74834C12.3976 9.42591 12.8331 8.77285 13.0868 8.35562C13.3175 7.97624 13.6499 7.35055 13.8308 6.93641C13.9559 6.65006 14.0256 6.41233 14.2867 6.30442C14.4952 6.21829 15.0561 6.24993 15.3193 6.24993C16.2114 6.24993 16.7811 6.11325 16.3883 7.07791C16.1453 7.67469 15.5673 8.58167 15.2058 9.13383C15.0621 9.35342 14.9122 9.57261 14.7691 9.78497C14.643 9.97217 14.3773 10.2923 14.384 10.4868C14.3916 10.7068 14.7327 11.0278 14.8331 11.125C15.2055 11.4858 15.6869 11.9843 16.0059 12.3936C16.2635 12.724 16.6157 13.1244 16.752 13.532C16.8747 13.8989 16.7139 14.1203 16.3708 14.1597C16.2303 14.1758 15.4945 14.1665 15.294 14.1665C14.9268 14.1665 14.6104 14.2136 14.3449 14.0295C14.1471 13.8923 13.7505 13.4465 13.5353 13.2073C13.1618 12.7922 12.5778 12.2109 12.1036 11.9444C11.9033 11.8318 11.4441 11.665 11.3074 11.9272C11.2207 12.0936 11.2515 12.7119 11.2515 12.9411C11.2515 13.8733 11.3941 14.1478 10.2972 14.1653C9.12373 14.1841 7.99077 13.6775 7.14763 12.9913C6.30391 12.3047 5.74757 11.5387 5.17303 10.6271C4.55374 9.64444 3.70618 8.06701 3.48732 6.89905C3.41647 6.52089 3.47297 6.2943 3.85674 6.25542ZM7.13469 0.01268L6.56493 0.012141C6.49185 0.0130316 6.46959 0.0259221 6.38861 0.025594C6.12756 0.0245159 5.90205 0.0506015 5.64482 0.0506015C5.61255 0.0689296 5.6118 0.0632575 5.56607 0.063281C5.37522 0.0630466 5.24217 0.0885465 5.05999 0.0885465L5.03477 0.102937C4.79707 0.0901872 3.99502 0.218765 3.72254 0.269038C3.67374 0.278038 3.60336 0.302202 3.54354 0.303585L3.52939 0.315163C3.4419 0.320085 3.29483 0.370827 3.21322 0.392225C2.95848 0.458975 2.70732 0.551459 2.46927 0.660302C1.95777 0.89416 1.68953 1.1166 1.30602 1.49575C1.26573 1.53559 1.24973 1.56302 1.21124 1.6034C1.11194 1.70758 0.944572 1.95388 0.870392 2.07212L0.601705 2.6004C0.521127 2.80358 0.448965 2.98986 0.394801 3.20312C0.372114 3.29253 0.320339 3.43775 0.31516 3.52939L0.303606 3.54357L0.179296 4.25262C0.171398 4.31848 0.167062 4.36688 0.157406 4.43314C0.139898 4.55351 0.0974988 4.92035 0.10296 5.02209C0.10085 5.07996 0.10167 5.04675 0.0885448 5.05969C0.0885448 5.24212 0.0629049 5.37506 0.0633267 5.56605C0.0633033 5.57747 0.0640529 5.59305 0.0623654 5.60412C0.0592248 5.62479 0.0547259 5.6268 0.050601 5.63475C0.050601 5.89218 0.0245388 6.11695 0.0255934 6.37596C0.0259216 6.45691 0.0130539 6.4792 0.0121398 6.55225L0.0127258 7.13467C0.0127023 7.15122 0.0147156 7.18401 0.0132156 7.19844C0.00892653 7.23965 0.0104531 7.2193 0 7.2355V12.7644C0.0088359 12.778 0.0067009 12.7645 0.0118102 12.7902C0.0126306 12.7943 0.0133555 12.809 0.0136367 12.8136C0.0144102 12.8266 0.0127023 12.8507 0.0127258 12.8652L0.0122085 13.4349C0.0123257 13.5148 0.025945 13.54 0.0255934 13.6239C0.0245388 13.8834 0.050601 14.1085 0.050601 14.3666C0.06314 14.3896 0.0512561 14.3453 0.0623654 14.396C0.0640764 14.4039 0.0632804 14.425 0.0633038 14.4338C0.0630695 14.6247 0.0885448 14.7578 0.0885448 14.94C0.101553 14.9529 0.100921 14.9199 0.10296 14.9778L0.178101 15.7358C0.184687 15.7952 0.195607 15.8463 0.20613 15.9101L0.303606 16.4563L0.31516 16.4705C0.325261 16.6493 0.531372 17.2221 0.594536 17.3813C0.782856 17.8558 1.06703 18.2649 1.4263 18.6241L1.58423 18.7698C1.73151 18.901 2.15654 19.2156 2.30232 19.2533L2.31528 19.2661C2.47918 19.3541 2.70971 19.4423 2.88425 19.5065C2.92913 19.523 2.99122 19.5436 3.03603 19.5571C3.14356 19.5895 3.44429 19.6799 3.52939 19.6847L3.5439 19.6963L4.26528 19.8206C4.32598 19.8292 4.39306 19.8367 4.44408 19.8442C4.55356 19.8602 4.93629 19.9022 5.03477 19.8969L5.05938 19.9113C5.24543 19.9113 5.37339 19.9365 5.56607 19.9366C5.57214 19.9366 5.60064 19.9355 5.60463 19.9361L5.64424 19.9493C5.90076 19.9493 6.12965 19.9753 6.38861 19.9743C6.46959 19.9739 6.49185 19.9868 6.56493 19.9877C6.62786 19.9885 6.69208 19.9872 6.75517 19.9872C6.8859 19.9872 7.01661 19.9873 7.14732 19.9872C7.18508 19.9872 7.23254 19.9792 7.25568 19.9999H12.7442C12.759 19.9764 12.8231 19.9872 12.8525 19.9872L13.4222 19.9876C13.5022 19.9875 13.5274 19.9739 13.6113 19.9743C13.8702 19.9753 14.0991 19.9493 14.3556 19.9493C14.3687 19.9417 14.3439 19.9413 14.3952 19.936C14.4061 19.9349 14.4337 19.9366 14.4465 19.9366C14.632 19.9368 14.7615 19.9113 14.9405 19.9113C14.9535 19.8979 14.9197 19.899 14.9778 19.8969C15.0646 19.9016 15.0972 19.8925 15.1679 19.8864L15.9105 19.7941C15.964 19.7836 16.0326 19.7768 16.0963 19.7649C16.1653 19.7519 16.2064 19.7428 16.2773 19.7307C16.3266 19.7224 16.4029 19.6975 16.4563 19.6963L16.4705 19.6847C16.5262 19.6815 16.5921 19.6595 16.6375 19.6482C16.6874 19.6358 16.7608 19.6089 16.8061 19.6077C16.8061 19.588 16.802 19.5946 16.8247 19.5946L17.5042 19.3512C18.0121 19.1211 18.3171 18.8853 18.7066 18.4916C18.7414 18.4564 18.7537 18.4331 18.7886 18.3965C18.8196 18.364 18.8477 18.3258 18.874 18.2921L19.1043 17.9657C19.1307 17.9266 19.1549 17.8873 19.1771 17.8488C19.3014 17.633 19.4555 17.2934 19.5218 17.0677L19.6103 16.7767C19.6301 16.7043 19.68 16.5531 19.6847 16.4705L19.6963 16.4562L19.8643 15.3735C19.8779 15.2662 19.9037 15.1004 19.8969 14.9778C19.8991 14.92 19.8982 14.953 19.9113 14.9401C19.9113 14.7578 19.9368 14.6247 19.9366 14.4338C19.9366 14.4196 19.9354 14.397 19.9375 14.3836C19.9411 14.3606 19.9431 14.3661 19.9493 14.3555C19.9493 14.099 19.9753 13.8702 19.9743 13.6112C19.974 13.5303 19.9868 13.508 19.9877 13.4349C19.9885 13.372 19.9872 13.3078 19.9872 13.2447C19.9872 13.114 19.9875 12.9832 19.9871 12.8525C19.9872 12.8145 19.978 12.7814 19.9999 12.7657V7.23412C19.9833 7.21417 19.992 7.24044 19.9867 7.1984C19.9855 7.18972 19.9872 7.15837 19.9871 7.14733L19.9877 6.57763C19.9875 6.49767 19.9739 6.47247 19.9743 6.38861C19.9753 6.12963 19.9493 5.90074 19.9493 5.64424L19.9361 5.60461C19.9356 5.60097 19.9366 5.57187 19.9366 5.56605C19.9368 5.37499 19.9113 5.24184 19.9113 5.05931C19.898 5.04647 19.8991 5.07975 19.8969 5.02209C19.9091 4.79595 19.7791 3.98422 19.7308 3.72251C19.7218 3.67372 19.6977 3.60336 19.6963 3.5435L19.6847 3.52939C19.6803 3.45095 19.6348 3.31006 19.6131 3.23309L19.5512 3.01665C19.3875 2.52969 19.2019 2.11921 18.885 1.72206C18.8572 1.68726 18.8308 1.64957 18.8011 1.61624C18.2876 1.04163 17.8403 0.75977 17.1156 0.493357L16.8247 0.405233C16.8022 0.405233 16.8063 0.411748 16.8063 0.392155C16.7613 0.390912 16.6928 0.365389 16.6476 0.354163C16.5952 0.341202 16.5289 0.318444 16.4705 0.315163L16.4563 0.303585L15.7472 0.179366C15.6815 0.171468 15.6213 0.162445 15.5686 0.155507C15.4492 0.139828 15.0721 0.0978746 14.9778 0.102937C14.9195 0.100922 14.9529 0.101625 14.9399 0.0885465C14.7652 0.0885465 14.6299 0.06307 14.4465 0.063281C14.4336 0.063281 14.4062 0.0649215 14.3952 0.06382C14.3486 0.0590856 14.3673 0.0574921 14.3552 0.0506015C14.1022 0.0506015 13.8794 0.0240001 13.624 0.0254533L13.2574 0.0126331C13.1266 0.0126331 12.9959 0.0125394 12.8652 0.01268C12.8335 0.01268 12.7599 0.0245389 12.7438 0H7.24415C7.22066 0.0209999 7.1755 0.01268 7.13469 0.01268Z" fill="#222222"/>
<path fill-rule="evenodd" clip-rule="evenodd" d="M3.85673 6.25542C3.47297 6.2943 3.41646 6.52089 3.48732 6.89905C3.70617 8.06701 4.55374 9.64444 5.17303 10.6271C5.74757 11.5387 6.3039 12.3047 7.14763 12.9913C7.99076 13.6775 9.12373 14.1841 10.2972 14.1653C11.3941 14.1478 11.2515 13.8733 11.2515 12.9411C11.2515 12.7119 11.2206 12.0936 11.3074 11.9272C11.4441 11.665 11.9033 11.8318 12.1036 11.9444C12.5778 12.2109 13.1618 12.7922 13.5353 13.2073C13.7505 13.4465 14.1471 13.8923 14.3449 14.0295C14.6104 14.2136 14.9268 14.1665 15.294 14.1665C15.4945 14.1665 16.2303 14.1758 16.3708 14.1597C16.7139 14.1203 16.8747 13.8989 16.752 13.532C16.6157 13.1244 16.2635 12.724 16.0059 12.3936C15.6869 11.9843 15.2055 11.4858 14.8331 11.125C14.7327 11.0278 14.3916 10.7068 14.384 10.4868C14.3773 10.2923 14.643 9.97217 14.7691 9.78497C14.9122 9.5726 15.0621 9.35342 15.2058 9.13383C15.5673 8.58167 16.1453 7.67469 16.3883 7.0779C16.7811 6.11324 16.2114 6.24993 15.3193 6.24993C15.0561 6.24993 14.4952 6.21829 14.2867 6.30442C14.0256 6.41233 13.9559 6.65005 13.8308 6.93641C13.6499 7.35055 13.3174 7.97624 13.0868 8.35562C12.8331 8.77285 12.3976 9.42591 12.0506 9.74834C11.9218 9.8681 11.7511 10.0459 11.5642 10.0837C11.2005 10.1572 11.2514 9.62782 11.2514 9.34845V7.17262C11.2514 6.85483 11.308 6.40424 11.0429 6.28797C10.887 6.2196 10.2275 6.24993 10.0063 6.24993C9.8159 6.24993 8.53718 6.22797 8.4101 6.27124C8.289 6.31242 8.17599 6.42145 8.1724 6.5782C8.16375 6.95577 8.75154 7.01669 8.75119 8.15933C8.75105 8.52198 8.75119 8.8846 8.75119 9.24725C8.75119 9.59126 8.76956 9.98991 8.74615 10.3274C8.73544 10.4822 8.71203 10.6592 8.57342 10.699C8.41613 10.7442 8.27466 10.6404 8.18764 10.5725C7.63128 10.1386 6.87847 8.80278 6.50596 7.92784C6.39704 7.67202 6.29594 7.42979 6.19433 7.16369C6.10101 6.91926 6.01178 6.57353 5.85871 6.41198C5.64881 6.19047 5.29089 6.24993 4.93357 6.24993C4.72786 6.24993 4.00385 6.24051 3.85673 6.25542Z" fill="white"/>
</svg>
