<svg width="26" height="18" viewBox="0 0 26 18" fill="none" xmlns="http://www.w3.org/2000/svg">
<path d="M24.7928 2.81655C24.5046 1.71523 23.6602 0.847121 22.5894 0.55056C20.6331 0 12.8076 0 12.8076 0C12.8076 0 4.98237 0 3.02601 0.529573C1.97583 0.825938 1.11085 1.71543 0.822653 2.81655C0.307861 4.82814 0.307861 9 0.307861 9C0.307861 9 0.307861 13.1928 0.822653 15.1835C1.11104 16.2846 1.95523 17.1529 3.0262 17.4494C5.00297 18 12.8078 18 12.8078 18C12.8078 18 20.6331 18 22.5894 17.4704C23.6604 17.1741 24.5046 16.3058 24.793 15.2046C25.3078 13.1928 25.3078 9.02118 25.3078 9.02118C25.3078 9.02118 25.3284 4.82814 24.7928 2.81655Z" fill="#222222"/>
<path d="M10.3163 12.854L16.8236 8.99988L10.3163 5.14575V12.854Z" fill="white"/>
</svg>
